<svg width="23" height="21" viewBox="0 0 23 21" fill="none" xmlns="http://www.w3.org/2000/svg">
<path d="M21.9897 19.4226L18.3003 15.9393C19.9165 14.2451 20.9098 12.0113 20.9098 9.55711C20.9098 4.28737 16.3688 0 10.7872 0C5.20559 0 0.664551 4.28737 0.664551 9.55715C0.664551 14.8269 5.20559 19.1143 10.7872 19.1143C13.3866 19.1143 15.7525 18.1765 17.547 16.6506L21.2364 20.1339C21.3404 20.2321 21.4768 20.2812 21.6131 20.2812C21.7494 20.2812 21.8857 20.2321 21.9898 20.1339C22.1979 19.9374 22.1978 19.6191 21.9897 19.4226ZM10.7872 18.1083C5.79352 18.1083 1.73012 14.2723 1.73012 9.55715C1.73012 4.84198 5.79352 1.006 10.7872 1.006C15.7808 1.006 19.8442 4.84193 19.8442 9.55715C19.8442 14.2724 15.7808 18.1083 10.7872 18.1083Z" fill="#25396F"/>
</svg>
